<svg width="16" height="16" viewBox="0 0 16 16" fill="none" xmlns="http://www.w3.org/2000/svg">
<path d="M13.1427 8C12.8271 8 12.5712 8.25583 12.5712 8.57143V14.2856C12.5712 14.6012 12.3154 14.857 11.9998 14.857H1.71426C1.39866 14.857 1.14283 14.6012 1.14283 14.2856V2.85721C1.14283 2.54161 1.39866 2.28578 1.71426 2.28578H8.57131C8.88691 2.28578 9.14275 2.02994 9.14275 1.71434C9.14275 1.39874 8.88691 1.14294 8.57131 1.14294H1.71426C0.767501 1.14294 0 1.91045 0 2.85721V14.2856C0 15.2324 0.767501 15.9999 1.71426 15.9999H11.9998C12.9466 15.9999 13.7141 15.2324 13.7141 14.2856V8.57139C13.7141 8.25583 13.4583 8 13.1427 8Z" fill="#0C9C01"/>
<path d="M15.3594 0.640904C14.9492 0.230552 14.3927 6.41474e-05 13.8124 0.000131111C13.2318 -0.00154297 12.6747 0.229347 12.2656 0.641272L4.73879 8.16742C4.67634 8.23033 4.62923 8.30681 4.60108 8.39085L3.45825 11.8194C3.3585 12.1188 3.52039 12.4424 3.81981 12.5421C3.8779 12.5614 3.93874 12.5713 3.99995 12.5714C4.06128 12.5713 4.12225 12.5614 4.18051 12.5422L7.60904 11.3994C7.69324 11.3713 7.76975 11.3239 7.83246 11.2611L15.3592 3.73438C16.2135 2.88019 16.2136 1.49519 15.3594 0.640904ZM14.5512 2.92693L7.12275 10.3554L4.90335 11.0965L5.64219 8.87998L13.0735 1.45153C13.4821 1.04379 14.1438 1.04446 14.5516 1.453C14.7463 1.64817 14.8561 1.91237 14.8569 2.18809C14.8576 2.46529 14.7476 2.73127 14.5512 2.92693Z" fill="#0C9C01"/>
</svg>
