<svg width="13" height="13" viewBox="0 0 13 13" fill="none" xmlns="http://www.w3.org/2000/svg">
<g opacity="0.5">
<path d="M12.9207 12.1547L9.14425 8.37831C9.86052 7.49403 10.2917 6.36983 10.2917 5.14585C10.2917 2.30844 7.98323 0 5.14583 0C2.30842 0 0 2.30844 0 5.14585C0 7.98326 2.30844 10.2917 5.14585 10.2917C6.36983 10.2917 7.49403 9.86052 8.37831 9.14427L12.1547 12.9207C12.2605 13.0264 12.432 13.0264 12.5378 12.9207L12.9207 12.5377C13.0264 12.432 13.0264 12.2605 12.9207 12.1547ZM5.14585 9.20836C2.90566 9.20836 1.08334 7.38605 1.08334 5.14585C1.08334 2.90566 2.90566 1.08334 5.14585 1.08334C7.38605 1.08334 9.20836 2.90566 9.20836 5.14585C9.20836 7.38605 7.38605 9.20836 5.14585 9.20836Z" fill="black"/>
</g>
</svg>
